<svg width="20" height="28" viewBox="0 0 20 28" fill="none" xmlns="http://www.w3.org/2000/svg">
<path fill-rule="evenodd" clip-rule="evenodd" d="M0.405716 10.5C0.405715 10.9069 0.735611 11.2368 1.14256 11.2368L17.0785 11.2368L15.7313 12.5841C15.4435 12.8718 15.4435 13.3384 15.7313 13.6261C16.019 13.9139 16.4856 13.9139 16.7733 13.6261L19.3785 11.021C19.4491 10.9504 19.5024 10.8689 19.5384 10.782C19.5741 10.6958 19.594 10.6013 19.5943 10.5022C19.5943 10.5015 19.5943 10.5007 19.5943 10.5C19.5943 10.4993 19.5943 10.4985 19.5943 10.4978C19.5937 10.3099 19.5218 10.1223 19.3785 9.97896C19.3784 9.97894 19.3784 9.97891 19.3784 9.97889L16.7733 7.37383C16.4856 7.08608 16.019 7.08608 15.7313 7.37383C15.4435 7.66159 15.4435 8.12813 15.7313 8.41588L17.0785 9.76315L1.14256 9.76315C0.73561 9.76315 0.405716 10.093 0.405716 10.5Z" fill="white"/>
<path fill-rule="evenodd" clip-rule="evenodd" d="M19.5943 17.5C19.5943 17.9069 19.2644 18.2368 18.8574 18.2368L2.92145 18.2368L4.26871 19.5841C4.55647 19.8718 4.55647 20.3384 4.26871 20.6261C3.98096 20.9139 3.51442 20.9139 3.22666 20.6261L0.621531 18.021C0.550885 17.9504 0.497584 17.8689 0.461626 17.782C0.425865 17.6958 0.40601 17.6013 0.405719 17.5022C0.405716 17.5015 0.405716 17.5007 0.405716 17.5C0.405715 17.4993 0.405716 17.4985 0.405719 17.4978C0.406279 17.3099 0.478217 17.1223 0.621532 16.979C0.621556 16.9789 0.621581 16.9789 0.621605 16.9789L3.22666 14.3738C3.51442 14.0861 3.98096 14.0861 4.26871 14.3738C4.55647 14.6616 4.55647 15.1281 4.26871 15.4159L2.92145 16.7631L18.8574 16.7631C19.2644 16.7631 19.5943 17.093 19.5943 17.5Z" fill="white"/>
</svg>
