<svg width="16" height="15" viewBox="0 0 16 15" fill="none" xmlns="http://www.w3.org/2000/svg">
<path fill-rule="evenodd" clip-rule="evenodd" d="M14.6694 7.75366C15.5213 6.90213 16 5.74682 16 4.54214C16 3.33751 15.5213 2.18225 14.6694 1.33063C13.8177 0.478661 12.6625 0 11.4579 0C10.2532 0 9.09787 0.478704 8.24623 1.33074L7.99981 1.57716L7.75328 1.33063C5.97961 -0.443044 3.10392 -0.443044 1.33025 1.33063C-0.443418 3.1043 -0.443418 5.97999 1.33025 7.75366L7.50583 13.9292C7.77865 14.2021 8.22098 14.2021 8.49379 13.9292L14.6694 7.75366ZM13.6815 6.76558L12.9409 7.50621L7.99981 12.4473L2.31822 6.7657C1.09018 5.53766 1.09018 3.54662 2.31822 2.31859C3.54625 1.09055 5.53729 1.09055 6.76532 2.31859L7.50583 3.0591C7.77865 3.33192 8.22098 3.33192 8.49379 3.0591L9.23431 2.31859C9.82402 1.7286 10.6238 1.39719 11.4579 1.39719C12.2919 1.39719 13.0917 1.7286 13.6815 2.31871C14.2714 2.9083 14.6028 3.70813 14.6028 4.54214C14.6028 5.37615 14.2714 6.17598 13.6815 6.76558Z" fill="white"/>
</svg>
